<?xml version="1.0" encoding="UTF-8" standalone="no"?>
<!-- Created with Inkscape (http://www.inkscape.org/) -->

<svg
   xmlns:dc="http://purl.org/dc/elements/1.1/"
   xmlns:cc="http://creativecommons.org/ns#"
   xmlns:rdf="http://www.w3.org/1999/02/22-rdf-syntax-ns#"
   xmlns:svg="http://www.w3.org/2000/svg"
   xmlns="http://www.w3.org/2000/svg"
   xmlns:sodipodi="http://sodipodi.sourceforge.net/DTD/sodipodi-0.dtd"
   xmlns:inkscape="http://www.inkscape.org/namespaces/inkscape"
   id="svg2"
   version="1.1"
   inkscape:version="0.48.4 r9939"
   width="117.6125"
   height="216.52425"
   xml:space="preserve"
   sodipodi:docname="html5apps.svg"><metadata
     id="metadata8"><rdf:RDF><cc:Work
         rdf:about=""><dc:format>image/svg+xml</dc:format><dc:type
           rdf:resource="http://purl.org/dc/dcmitype/StillImage" /><dc:title></dc:title></cc:Work></rdf:RDF></metadata><defs
     id="defs6"><clipPath
       clipPathUnits="userSpaceOnUse"
       id="clipPath64"><path
         d="m 0,175.5 96,0 L 96,0 0,0 0,175.5 z"
         id="path66"
         inkscape:connector-curvature="0" /></clipPath><clipPath
       clipPathUnits="userSpaceOnUse"
       id="clipPath72"><path
         d="m 48.2085,36.7397 31.5,0 0,-28.88277 -31.5,0 0,28.88277 z"
         id="path74"
         inkscape:connector-curvature="0" /></clipPath><clipPath
       clipPathUnits="userSpaceOnUse"
       id="clipPath92"><path
         d="m 0,175.5 96,0 L 96,0 0,0 0,175.5 z"
         id="path94"
         inkscape:connector-curvature="0" /></clipPath></defs><sodipodi:namedview
     pagecolor="#000000"
     bordercolor="#666666"
     borderopacity="1"
     objecttolerance="10"
     gridtolerance="10"
     guidetolerance="10"
     inkscape:pageopacity="1"
     inkscape:pageshadow="2"
     inkscape:window-width="815"
     inkscape:window-height="480"
     id="namedview4"
     showgrid="false"
     inkscape:zoom="0.76069379"
     inkscape:cx="101.49788"
     inkscape:cy="149.90946"
     inkscape:window-x="0"
     inkscape:window-y="27"
     inkscape:window-maximized="0"
     inkscape:current-layer="g10"
     fit-margin-top="0"
     fit-margin-left="0"
     fit-margin-right="0"
     fit-margin-bottom="0" /><g
     id="g10"
     inkscape:groupmode="layer"
     inkscape:label="html5apps"
     transform="matrix(1.25,0,0,-1.25,-1.5345,217.78137)"><path
       inkscape:connector-curvature="0"
       id="path14"
       style="fill:#ffffff;fill-opacity:1;fill-rule:nonzero;stroke:none"
       d="m 9.9819,174.2251 5.986,0 0,-5.914 5.475,0 0,5.914 5.986,0 0,-17.91 -5.986,0 0,5.998 -5.475,0 0,-5.998 -5.984,0 0,17.91 -0.002,0 z" /><g
       id="g16"
       transform="translate(35.3022,168.2856)"
       style="fill:#ffffff"><path
         d="m 0,0 -5.27,0 0,5.939 16.528,0 0,-5.939 -5.274,0 0,-11.97 -5.983,0 L 0.001,0 0,0 z"
         style="fill:#ffffff;fill-opacity:1;fill-rule:nonzero;stroke:none"
         id="path18"
         inkscape:connector-curvature="0" /></g><g
       id="g20"
       transform="translate(49.1831,174.2251)"
       style="fill:#ffffff"><path
         d="m 0,0 6.244,0 3.838,-6.292 3.836,6.292 6.244,0 0,-17.91 -5.961,0 0,8.877 -4.119,-6.367 -0.103,0 -4.122,6.367 0,-8.877 L 0,-17.91 0,0 z"
         style="fill:#ffffff;fill-opacity:1;fill-rule:nonzero;stroke:none"
         id="path22"
         inkscape:connector-curvature="0" /></g><g
       id="g24"
       transform="translate(72.3237,174.2251)"
       style="fill:#ffffff"><path
         d="m 0,0 5.988,0 0,-11.99 8.417,0 0,-5.92 L 0,-17.91 0,0 z"
         style="fill:#ffffff;fill-opacity:1;fill-rule:nonzero;stroke:none"
         id="path26"
         inkscape:connector-curvature="0" /></g><path
       inkscape:connector-curvature="0"
       id="path30"
       style="fill:#ffffff;fill-opacity:1;fill-rule:nonzero;stroke:none"
       d="m 1.2276,148.1256 8.563,-96.042 38.424,-10.666 38.533,10.682 8.57,96.026 -94.09,0 z" /><g
       id="g32"
       transform="translate(48.2729,49.5815)"
       style="fill:#f2f2f2"><path
         d="M 0,0 31.135,8.635 38.459,90.691 0,90.691 0,0 z"
         style="fill:#f2f2f2;fill-opacity:1;fill-rule:nonzero;stroke:none"
         id="path34"
         inkscape:connector-curvature="0" /></g><g
       id="g36"
       transform="translate(48.2729,104.6528)"
       style="fill:#1a1a1a"><path
         d="m 0,0 -15.588,0 -1.074,12.061 16.662,0 0,11.777 -0.041,0 -29.495,0 0.283,-3.157 2.894,-32.462 26.359,0 L 0,0 z"
         style="fill:#1a1a1a;fill-opacity:1;fill-rule:nonzero;stroke:none"
         id="path38"
         inkscape:connector-curvature="0" /></g><g
       id="g40"
       transform="translate(48.2729,74.062)"
       style="fill:#1a1a1a"><path
         d="m 0,0 -0.05,-0.016 -13.12,3.541 -0.838,9.396 -6.375,0 -5.448,0 1.648,-18.495 24.13,-6.699 L 0,-12.256 0,0 z"
         style="fill:#1a1a1a;fill-opacity:1;fill-rule:nonzero;stroke:none"
         id="path42"
         inkscape:connector-curvature="0" /></g><g
       id="g44"
       transform="translate(48.2319,104.6528)"
       style="fill:#000000"><path
         d="m 0,0 0,-11.781 14.504,0 L 13.139,-27.056 0,-30.603 l 0,-12.253 24.147,6.691 0.177,1.992 2.769,31.01 L 27.381,0 24.207,0 0,0 z"
         style="fill:#000000;fill-opacity:1;fill-rule:nonzero;stroke:none"
         id="path46"
         inkscape:connector-curvature="0" /></g><g
       id="g48"
       transform="translate(48.2319,128.4912)"
       style="fill:#000000"><path
         d="m 0,0 0,-7.312 0,-4.436 0,-0.029 28.414,0 0.037,0 0.236,2.647 0.538,5.973 L 29.509,0 0,0 z"
         style="fill:#000000;fill-opacity:1;fill-rule:nonzero;stroke:none"
         id="path50"
         inkscape:connector-curvature="0" /></g><g
       id="g52"
       transform="translate(9.7905,45.7847)"><path
         d="m 0,0 -0.06,0.061 0,-44.84 76.831,0 0,44.744 L 38.424,-10.666 0,0 z"
         style="fill:#97bf0d;fill-opacity:1;fill-rule:nonzero;stroke:none"
         id="path54"
         inkscape:connector-curvature="0" /></g><path
       inkscape:connector-curvature="0"
       id="path58"
       style="fill:#ffffff;fill-opacity:1;fill-rule:nonzero;stroke:none"
       d="m 9.7905,45.7847 -0.06,0.061 0,-44.84 76.831,0 0,44.744 -38.347,-10.631 -38.424,10.666 z" /><g
       id="g84"
       transform="translate(25.6694,23.9937)"
       style="fill:#1a1a1a"><path
         d="m 0,0 1.602,-6.965 -3.521,0 L -0.277,0 0,0 z m -3.307,3.66 -4.211,-17.666 3.926,0 0.816,3.262 5.194,0 0.911,-3.262 3.912,0 -4.161,17.666 -6.387,0 z"
         style="fill:#1a1a1a;fill-opacity:1;fill-rule:nonzero;stroke:none"
         id="path86"
         inkscape:connector-curvature="0" /></g><g
       id="g96"
       transform="translate(37.9722,23.8726)"
       style="fill:#1a1a1a"><path
         d="M 0,0 2.654,0 C 4.25,0 4.9,-0.693 4.9,-2.391 4.9,-4.209 4.166,-5.092 2.654,-5.092 L 0,-5.092 0,0 z m 2.678,3.781 -6.555,0 0,-17.666 3.877,0 0,5.012 2.678,0 c 3.979,0 6.172,2.303 6.172,6.482 0,4.037 -2.135,6.172 -6.172,6.172"
         style="fill:#1a1a1a;fill-opacity:1;fill-rule:nonzero;stroke:none"
         id="path98"
         inkscape:connector-curvature="0" /></g><g
       id="g100"
       transform="translate(52.2866,23.8726)"
       style="fill:#000000"><path
         d="M 0,0 2.654,0 C 4.25,0 4.9,-0.693 4.9,-2.391 4.9,-4.209 4.166,-5.092 2.654,-5.092 L 0,-5.092 0,0 z m 2.678,3.781 -6.555,0 0,-17.666 3.877,0 0,5.012 2.678,0 c 3.979,0 6.172,2.303 6.172,6.482 0,4.037 -2.135,6.172 -6.172,6.172"
         style="fill:#000000;fill-opacity:1;fill-rule:nonzero;stroke:none"
         id="path102"
         inkscape:connector-curvature="0" /></g><g
       id="g104"
       transform="translate(68.8022,20.6538)"
       style="fill:#000000"><path
         d="m 0,0 c -2.933,0.834 -3.209,1.115 -3.209,2.053 0,0.427 0,1.429 2.415,1.429 1.345,0 4.654,-0.375 4.688,-0.378 L 4.44,3.041 4.744,6.588 4.271,6.678 c -0.129,0.025 -3.189,0.611 -5.065,0.611 -3.997,0 -6.291,-1.928 -6.291,-5.285 0,-3.451 1.929,-4.606 5.489,-5.531 2.51,-0.635 2.76,-1.045 2.76,-1.903 0,-1.074 -0.379,-1.695 -2.318,-1.695 -1.647,0 -4.647,0.4 -4.677,0.402 l -0.54,0.073 -0.406,-3.553 0.486,-0.096 c 0.135,-0.023 3.309,-0.631 5.162,-0.631 3.936,0 6.193,2.032 6.193,5.573 C 5.064,-2.059 3.434,-1 0,0"
         style="fill:#000000;fill-opacity:1;fill-rule:nonzero;stroke:none"
         id="path106"
         inkscape:connector-curvature="0" /></g><g
       style="fill:#cccccc"
       clip-path="url(#clipPath64)"
       id="g62"><g
         style="fill:#cccccc"
         id="g68"><g
           style="fill:#cccccc"
           id="g70" /><g
           style="fill:#cccccc"
           id="g76"><g
             style="opacity:0.14999402;fill:#cccccc"
             id="g78"
             clip-path="url(#clipPath72)"><g
               style="fill:#cccccc"
               id="g80"
               transform="translate(50.0454,28.5171)"><path
                 inkscape:connector-curvature="0"
                 id="path82"
                 style="fill:#cccccc;fill-opacity:1;fill-rule:nonzero;stroke:none"
                 d="m 0,0 -1.832,-0.508 -0.005,0 0,-20.152 31.5,0 0,28.883 L 0,0 z" /></g></g></g></g></g></g></svg>