<?xml version="1.0" encoding="UTF-8" standalone="no"?>
<svg width="100px" height="84px" viewBox="0 0 100 84" version="1.1" xmlns="http://www.w3.org/2000/svg" xmlns:xlink="http://www.w3.org/1999/xlink" xmlns:sketch="http://www.bohemiancoding.com/sketch/ns">
    <title>Slice 1</title>
    <description>Created with Sketch (http://www.bohemiancoding.com/sketch)</description>
    <defs/>
    <g id="Page-1" stroke="none" stroke-width="1" fill="none" fill-rule="evenodd" sketch:type="MSPage">
        <path d="M100.001,9.942 C96.32,11.63 92.368,12.768 88.218,13.281 C92.454,10.657 95.708,6.502 97.239,1.551 C93.274,3.983 88.885,5.744 84.213,6.697 C80.47,2.575 75.138,0 69.234,0 C57.904,0 48.716,9.494 48.716,21.205 C48.716,22.867 48.899,24.486 49.249,26.038 C32.197,25.154 17.081,16.712 6.961,3.883 C5.194,7.016 4.183,10.656 4.183,14.542 C4.183,21.899 7.805,28.391 13.31,32.192 C9.947,32.083 6.785,31.128 4.017,29.541 C4.015,29.63 4.015,29.719 4.015,29.809 C4.015,40.081 11.087,48.654 20.473,50.602 C18.752,51.086 16.939,51.346 15.068,51.346 C13.746,51.346 12.462,51.212 11.209,50.967 C13.818,59.391 21.396,65.522 30.375,65.693 C23.354,71.381 14.508,74.77 4.895,74.77 C3.239,74.77 1.606,74.668 0,74.473 C9.08,80.491 19.865,84 31.449,84 C69.186,84 89.823,51.688 89.823,23.664 C89.823,22.744 89.803,21.83 89.764,20.921 C93.771,17.929 97.251,14.195 100.001,9.942 L100.001,9.942 L100.001,9.942 Z" id="shape-twitter" fill="#FFFFFF" sketch:type="MSShapeGroup"/>
    </g>
</svg>